<?xml version="1.0" encoding="UTF-8" standalone="no"?><!DOCTYPE svg PUBLIC "-//W3C//DTD SVG 1.1//EN" "http://www.w3.org/Graphics/SVG/1.1/DTD/svg11.dtd"><svg width="100%" height="100%" viewBox="0 0 106 106" version="1.1" xmlns="http://www.w3.org/2000/svg" xmlns:xlink="http://www.w3.org/1999/xlink" xml:space="preserve" style="fill-rule:evenodd;clip-rule:evenodd;stroke-miterlimit:1.41421;"><g><path d="M106,106l-106,0l0,-106l106,0.105l0,105.895Z" style="fill:#2c3e50;fill-rule:nonzero;"/><path d="M26.617,87.067l0,-11.117c1.306,1.019 2.923,1.695 4.746,2.51c1.826,0.814 3.747,1.502 5.763,2.063c2.016,0.559 4.222,0.798 6.258,1.103c2.034,0.306 3.833,0.737 5.562,0.737c5.953,0 10.252,-0.819 13.19,-2.771c2.937,-1.953 4.406,-4.763 4.406,-8.43c0,-1.969 -0.488,-3.685 -1.469,-5.145c-0.978,-1.459 -2.332,-2.792 -4.062,-3.998c-1.728,-1.204 -3.773,-2.359 -6.135,-3.462c-2.363,-1.104 -4.907,-2.268 -7.633,-3.49c-2.882,-1.289 -5.57,-2.597 -8.066,-3.922c-2.497,-1.323 -4.666,-2.785 -6.51,-4.379c-1.843,-1.598 -3.294,-3.405 -4.35,-5.426c-1.057,-2.019 -1.584,-4.388 -1.584,-7.105c0,-3.328 0.826,-6.222 2.478,-8.684c1.649,-2.461 3.82,-4.49 6.509,-6.087c2.688,-1.596 5.752,-2.784 9.19,-3.565c3.437,-0.782 6.942,-1.172 10.514,-1.172c8.142,0 18.965,1.684 22.69,3.416l-0.015,8.903c-4.878,-2.987 -16.012,-4.577 -23.654,-4.577c-2.114,0 -4.226,0.196 -6.338,0.587c-2.114,0.389 -3.995,1.027 -5.647,1.909c-1.652,0.883 -2.994,2.021 -4.032,3.412c-1.038,1.392 -1.556,3.091 -1.556,5.094c0,1.868 0.394,3.481 1.182,4.838c0.788,1.359 1.949,2.599 3.485,3.719c1.535,1.121 3.408,2.207 5.618,3.259c2.208,1.053 4.752,2.209 7.633,3.464c2.956,1.291 5.761,2.649 8.412,4.075c2.649,1.426 4.973,3.005 6.97,4.738c1.997,1.73 3.583,3.649 4.753,5.755c1.171,2.105 1.757,4.516 1.757,7.232c0,3.599 -0.796,6.646 -2.391,9.143c-1.593,2.495 -3.763,4.71 -6.47,6.271c-2.707,1.562 -5.81,4.572 -9.344,5.268c-3.534,0.695 -6.993,0.844 -10.998,0.543c-1.303,-0.098 -3.075,-0.259 -4.996,-0.447c-1.921,-0.186 -3.977,-0.669 -5.974,-1.026c-1.997,-0.356 -3.813,-0.951 -5.599,-1.479c-1.786,-0.525 -3.218,-1.111 -4.293,-1.757Z" style="fill:#fff;fill-rule:nonzero;"/><rect x="61.418" y="14.558" width="4.55" height="14.009" style="fill:#2c3e50;fill-rule:nonzero;"/><path d="M50.587,83.091c5.745,-0.616 15.809,-2.862 15.809,-14.228l0,-38.232l10.8,0l0,38.834c0,15.414 -10.747,21.268 -24.976,21.566c-3.785,0.081 -5.094,0.059 -8.017,-0.534l0,-8.037c0,0 4.415,0.849 6.627,0.611" style="fill:#2c3e50;fill-rule:nonzero;"/><path d="M50.587,83.091c5.745,-0.616 15.809,-2.862 15.809,-14.228l0,-38.232l10.8,0l0,38.834c0,15.414 -10.747,21.268 -24.976,21.566c-3.785,0.081 -5.094,0.059 -8.017,-0.534l0,-8.037c0,0 4.415,0.849 6.627,0.611" style="fill:none;stroke:#fff;stroke-width:1.5px;"/><rect x="39.212" y="79.385" width="3.793" height="12.539" style="fill:#2c3e50;fill-rule:nonzero;"/></g></svg>