<?xml version="1.0" encoding="UTF-8" standalone="no"?><!DOCTYPE svg PUBLIC "-//W3C//DTD SVG 1.1//EN" "http://www.w3.org/Graphics/SVG/1.1/DTD/svg11.dtd"><svg width="100%" height="100%" viewBox="0 0 482 482" version="1.1" xmlns="http://www.w3.org/2000/svg" xmlns:xlink="http://www.w3.org/1999/xlink" xml:space="preserve" style="fill-rule:evenodd;clip-rule:evenodd;stroke-linejoin:round;stroke-miterlimit:1.41421;"><rect x="68.727" y="18.431" width="304.791" height="408.395" style="fill:#e1e6e9;stroke:#324d5b;stroke-width:2px;"/><rect x="108.482" y="55.174" width="304.791" height="24.696" style="fill:#64798a;stroke:#324d5b;stroke-width:2px;"/><rect x="108.482" y="80.473" width="304.791" height="383.096" style="fill:#ebf0f3;stroke:#324d5b;stroke-width:2px;"/><circle cx="395.504" cy="67.522" r="7.228" style="fill:#e56353;"/><circle cx="373.82" cy="67.522" r="7.228" style="fill:#44c4a1;"/><circle cx="352.136" cy="67.522" r="7.228" style="fill:#fcd462;"/><rect x="139.805" y="116.614" width="43.972" height="13.252" style="fill:#64798a;"/><rect x="139.805" y="156.972" width="116.254" height="13.252" style="fill:#e56353;"/><rect x="194.016" y="192.511" width="61.44" height="13.252" style="fill:#44c4a1;"/><g><rect x="197.631" y="228.049" width="58.428" height="13.252" style="fill:#64798a;"/><rect x="139.805" y="300.934" width="43.972" height="13.252" style="fill:#64798a;"/></g><rect x="139.805" y="341.292" width="116.254" height="13.252" style="fill:#27a2db;"/><rect x="194.016" y="376.831" width="61.44" height="13.252" style="fill:#e56353;"/><g><rect x="197.631" y="412.972" width="58.428" height="13.252" style="fill:#44c4a1;"/><rect x="256.059" y="156.972" width="58.428" height="13.252" style="fill:#44c4a1;"/></g><rect x="254.252" y="192.51" width="96.979" height="13.252" style="fill:#e56353;"/><rect x="256.059" y="228.049" width="58.428" height="13.252" style="fill:#fcd462;"/><rect x="256.059" y="341.292" width="58.428" height="13.252" style="fill:#e56353;"/><rect x="251.543" y="376.831" width="93.365" height="13.252" style="fill:#fcd462;"/><rect x="256.059" y="412.972" width="58.428" height="13.252" style="fill:#64798a;"/></svg>