<?xml version="1.0" encoding="UTF-8" standalone="no"?><!DOCTYPE svg PUBLIC "-//W3C//DTD SVG 1.1//EN" "http://www.w3.org/Graphics/SVG/1.1/DTD/svg11.dtd"><svg width="100%" height="100%" viewBox="0 0 281 281" version="1.1" xmlns="http://www.w3.org/2000/svg" xmlns:xlink="http://www.w3.org/1999/xlink" xml:space="preserve" style="fill-rule:evenodd;clip-rule:evenodd;stroke-linejoin:round;stroke-miterlimit:1.41421;"><g><path d="M97.916,132.648c0,-35.855 25.298,-49.708 50.284,-65.33c25.155,-15.745 42.563,-31.101 42.454,-67.283l16.8,-0.035c0.144,42.94 -21.805,61.769 -47.913,78.088c-23.627,14.773 -45.086,25.438 -45.069,54.56l-16.556,0Z" style="fill:#324d5b;fill-rule:nonzero;"/><path d="M21.894,132.648l236.275,0c9.316,0 16.877,7.552 16.877,16.877l0,109.699c0,9.325 -7.561,16.877 -16.877,16.877l-236.275,0c-9.316,0 -16.877,-7.552 -16.877,-16.877l0,-109.699c0,-9.325 7.561,-16.877 16.877,-16.877l0,0Z" style="fill:#ebebeb;fill-rule:nonzero;stroke:#324d5b;stroke-width:1px;"/><path d="M51.428,191.632l12.658,0l0,-12.657c0,-6.988 5.671,-12.658 12.657,-12.658c6.987,0 12.657,5.671 12.657,12.658l0,12.657l12.658,0c6.987,0 12.657,5.671 12.657,12.657c0,6.987 -5.671,12.657 -12.657,12.657l-12.657,0l0,12.658c0,6.987 -5.671,12.657 -12.657,12.657c-6.987,0 -12.657,-5.662 -12.657,-12.657l0,-12.658l-12.659,0c-6.987,0 -12.657,-5.671 -12.657,-12.657c0,-6.986 5.67,-12.657 12.657,-12.657Z" style="fill:#64798a;fill-rule:nonzero;"/><path d="M182.223,208.509c9.316,0 16.877,7.561 16.877,16.877c0,9.325 -7.561,16.877 -16.877,16.877c-9.316,0 -16.877,-7.552 -16.877,-16.877c0.001,-9.316 7.56,-16.877 16.877,-16.877Z" style="fill:#e56353;fill-rule:nonzero;"/><path d="M224.415,166.316c9.316,0 16.877,7.561 16.877,16.877c0,9.325 -7.561,16.877 -16.877,16.877c-9.316,0 -16.877,-7.552 -16.877,-16.877c0,-9.316 7.562,-16.877 16.877,-16.877Z" style="fill:#44c4a1;fill-rule:nonzero;"/></g></svg>