<?xml version="1.0" encoding="UTF-8" standalone="no"?><!DOCTYPE svg PUBLIC "-//W3C//DTD SVG 1.1//EN" "http://www.w3.org/Graphics/SVG/1.1/DTD/svg11.dtd"><svg width="100%" height="100%" viewBox="0 0 512 512" version="1.1" xmlns="http://www.w3.org/2000/svg" xmlns:xlink="http://www.w3.org/1999/xlink" xml:space="preserve" style="fill-rule:evenodd;clip-rule:evenodd;stroke-linejoin:round;stroke-miterlimit:1.41421;"><path d="M391.416,422.667l-354.167,0c-17.708,0 -31.25,-13.542 -31.25,-31.25l0,-354.167c0,-17.708 13.542,-31.25 31.25,-31.25l354.167,0c17.708,0 31.25,13.542 31.25,31.25l0,354.167c0,17.708 -13.542,31.25 -31.25,31.25Z" style="fill:#e8eae9;fill-rule:nonzero;stroke:#324d5b;stroke-width:3px;"/><rect x="40.374" y="111.208" width="346.875" height="277.083" style="fill:#fff;"/><g><rect x="75.791" y="152.875" width="278.125" height="19.792" style="fill:#ced6e0;"/><rect x="75.791" y="211.208" width="103.125" height="18.75" style="fill:#ced6e0;"/><rect x="75.791" y="268.5" width="103.125" height="18.75" style="fill:#ced6e0;"/><rect x="75.791" y="326.833" width="103.125" height="19.792" style="fill:#ced6e0;"/></g><circle cx="62.249" cy="58.083" r="20.833" style="fill:#fcd462;"/><circle cx="121.624" cy="58.083" r="20.833" style="fill:#44c4a1;"/><circle cx="182.041" cy="58.083" r="20.833" style="fill:#e56353;"/><path d="M381.984,423.946l41.983,-41.983l-34.618,-34.618l-41.983,41.983l34.618,34.618Z" style="fill:#344a5e;"/><path d="M378.916,439.333l54.167,54.167c16.667,16.667 43.75,16.667 60.417,0c16.667,-16.667 16.667,-43.75 0,-60.417l-54.167,-54.167l-60.417,60.417Z" style="fill:#f3705a;fill-rule:nonzero;"/><path d="M454.189,394.208l-14.732,-14.732l-60.397,60.398l14.73,14.731l60.399,-60.397l0,0Z" style="fill:#f05540;"/><path d="M442.457,382.042l-60.417,60.417c-5.208,5.208 -13.542,5.208 -19.792,0c-5.208,-5.208 -5.208,-13.542 0,-19.792l60.417,-60.417c5.208,-5.208 13.542,-5.208 19.792,0c5.209,6.25 5.209,14.583 0,19.792Z" style="fill:#f3705a;fill-rule:nonzero;"/><circle cx="283.082" cy="283.083" r="120.833" style="fill:#fff;"/><g><rect x="175.791" y="204.958" width="177.083" height="31.25" style="fill:#ced6e0;"/><rect x="175.791" y="263.292" width="177.083" height="31.25" style="fill:#ced6e0;"/><rect x="175.791" y="320.583" width="177.083" height="31.25" style="fill:#ced6e0;"/></g><path d="M379.957,379.958c-53.125,53.125 -140.625,53.125 -193.75,0c-53.125,-53.125 -53.125,-140.625 0,-193.75c53.125,-53.125 140.625,-53.125 193.75,0c54.167,54.167 54.167,140.625 0,193.75Zm-169.791,-169.791c-40.625,40.625 -40.625,106.25 0,146.875c40.625,40.625 106.25,40.625 146.875,0c40.625,-40.625 40.625,-106.25 0,-146.875c-40.625,-40.625 -106.25,-40.625 -146.875,0Z" style="fill:#415a6b;fill-rule:nonzero;"/></svg>